<svg version="1.1" id="Layer_1" xmlns="http://www.w3.org/2000/svg" xmlns:xlink="http://www.w3.org/1999/xlink" x="0px" y="0px"
	 width="100%" viewBox="0 0 523 600" enable-background="new 0 0 523 600" xml:space="preserve">
<path fill="#000000" opacity="1.000000" stroke="none" 
	d="
M524.000000,488.000000 
	C524.000000,525.640869 524.000000,563.281738 524.000000,601.000000 
	C350.644653,601.000000 177.289322,601.000000 3.181610,600.721985 
	C3.655989,599.095581 4.829762,597.694275 6.117106,596.406433 
	C61.827061,540.676575 117.543793,484.953522 173.287674,429.257599 
	C174.496597,428.049713 176.030441,427.166992 177.412735,426.132599 
	C177.088425,425.701599 176.764099,425.270599 176.439789,424.839600 
	C165.041916,424.839600 153.644028,424.839600 142.257507,424.839600 
	C142.257507,392.734528 142.257507,361.005371 142.257507,329.000000 
	C161.309692,329.000000 180.109772,328.762634 198.898010,329.129974 
	C205.387115,329.256836 210.150345,328.267761 214.344894,322.456940 
	C222.340347,311.380676 231.381256,301.061188 239.939697,290.388702 
	C250.313995,277.451813 260.602814,264.446320 270.995026,251.523941 
	C279.670776,240.735901 288.494690,230.066269 297.078613,219.206390 
	C297.819763,218.268738 297.903961,215.776505 297.192444,214.890411 
	C291.717865,208.072784 285.955780,201.486633 280.311981,194.804138 
	C267.740906,179.919464 255.100494,165.092133 242.650192,150.106979 
	C230.571564,135.569153 218.771774,120.799797 206.708603,106.248970 
	C194.512573,91.537888 182.100433,77.006187 169.861649,62.330299 
	C155.234283,44.790215 140.664734,27.201679 126.137535,9.578580 
	C123.906311,6.871865 122.036804,3.866981 120.000000,0.999999 
	C253.688675,1.000000 387.377350,1.000000 521.818237,1.291158 
	C514.687561,11.581023 506.854401,21.619381 498.908447,31.567671 
	C490.347076,42.286430 481.620789,52.873623 473.074860,63.604546 
	C463.317322,75.856949 453.729828,88.244766 443.974182,100.498672 
	C435.412903,111.252357 426.682159,121.871002 418.097504,132.606262 
	C408.011230,145.219391 398.034668,157.920288 387.948883,170.533859 
	C379.372986,181.259155 370.654602,191.870712 362.099335,202.612289 
	C352.347229,214.856659 342.755341,227.228699 333.001678,239.471848 
	C324.436676,250.222900 315.703644,260.839966 307.118866,271.575439 
	C297.032288,284.188934 287.062653,296.895966 276.972961,309.506927 
	C268.402557,320.218994 259.675995,330.806213 251.123505,341.532379 
	C241.263367,353.898529 231.528519,366.364502 221.719589,378.771545 
	C215.959488,386.057373 210.161087,393.312958 203.795059,401.317505 
	C264.040009,377.945404 323.309998,354.951508 383.172852,331.727631 
	C383.172852,384.178162 383.172852,435.935730 383.172852,488.000000 
	C430.390930,488.000000 477.195465,488.000000 524.000000,488.000000 
z"/>
<path fill="#FFFFFF" opacity="1.000000" stroke="none" 
	d="
M119.625000,0.999999 
	C122.036804,3.866981 123.906311,6.871865 126.137535,9.578580 
	C140.664734,27.201679 155.234283,44.790215 169.861649,62.330299 
	C182.100433,77.006187 194.512573,91.537888 206.708603,106.248970 
	C218.771774,120.799797 230.571564,135.569153 242.650192,150.106979 
	C255.100494,165.092133 267.740906,179.919464 280.311981,194.804138 
	C285.955780,201.486633 291.717865,208.072784 297.192444,214.890411 
	C297.903961,215.776505 297.819763,218.268738 297.078613,219.206390 
	C288.494690,230.066269 279.670776,240.735901 270.995026,251.523941 
	C260.602814,264.446320 250.313995,277.451813 239.939697,290.388702 
	C231.381256,301.061188 222.340347,311.380676 214.344894,322.456940 
	C210.150345,328.267761 205.387115,329.256836 198.898010,329.129974 
	C180.109772,328.762634 161.309692,329.000000 142.257507,329.000000 
	C142.257507,361.005371 142.257507,392.734528 142.257507,424.839600 
	C153.644028,424.839600 165.041916,424.839600 176.439789,424.839600 
	C176.764099,425.270599 177.088425,425.701599 177.412735,426.132599 
	C176.030441,427.166992 174.496597,428.049713 173.287674,429.257599 
	C117.543793,484.953522 61.827061,540.676575 6.117106,596.406433 
	C4.829762,597.694275 3.655989,599.095581 2.714621,600.721985 
	C2.333325,600.667664 1.216215,600.454041 1.090939,599.978882 
	C0.803601,598.889038 1.000000,597.671753 1.000000,596.506165 
	C1.000000,445.649872 1.000000,294.793610 1.282061,143.754791 
	C5.998118,138.551941 10.602951,133.670944 14.832669,128.484039 
	C25.622749,115.252174 36.182198,101.832359 46.955784,88.586861 
	C55.087254,78.589691 63.497173,68.818901 71.621872,58.816341 
	C83.928474,43.665321 96.139709,28.436087 108.289948,13.159347 
	C111.389481,9.262257 114.106979,5.061330 117.000000,1.000001 
	C117.750000,1.000000 118.500000,1.000000 119.625000,0.999999 
z"/>
<path fill="#EABD23" opacity="1.000000" stroke="none" 
	d="
M524.000000,487.531342 
	C477.195465,488.000000 430.390930,488.000000 383.172852,488.000000 
	C383.172852,435.935730 383.172852,384.178162 383.172852,331.727631 
	C323.309998,354.951508 264.040009,377.945404 203.795059,401.317505 
	C210.161087,393.312958 215.959488,386.057373 221.719589,378.771545 
	C231.528519,366.364502 241.263367,353.898529 251.123505,341.532379 
	C259.675995,330.806213 268.402557,320.218994 276.972961,309.506927 
	C287.062653,296.895966 297.032288,284.188934 307.118866,271.575439 
	C315.703644,260.839966 324.436676,250.222900 333.001678,239.471848 
	C342.755341,227.228699 352.347229,214.856659 362.099335,202.612289 
	C370.654602,191.870712 379.372986,181.259155 387.948883,170.533859 
	C398.034668,157.920288 408.011230,145.219391 418.097504,132.606262 
	C426.682159,121.871002 435.412903,111.252357 443.974182,100.498672 
	C453.729828,88.244766 463.317322,75.856949 473.074860,63.604546 
	C481.620789,52.873623 490.347076,42.286430 498.908447,31.567671 
	C506.854401,21.619381 514.687561,11.581023 522.285156,1.291158 
	C522.666687,1.332439 523.783752,1.546118 523.908997,2.021302 
	C524.196350,3.111160 524.000000,4.328559 524.000000,5.494181 
	C524.000000,166.017014 524.000000,326.539856 524.000000,487.531342 
z"/>
<path fill="#000000" opacity="1.000000" stroke="none" 
	d="
M116.531342,1.000001 
	C114.106979,5.061330 111.389481,9.262257 108.289948,13.159347 
	C96.139709,28.436087 83.928474,43.665321 71.621872,58.816341 
	C63.497173,68.818901 55.087254,78.589691 46.955784,88.586861 
	C36.182198,101.832359 25.622749,115.252174 14.832669,128.484039 
	C10.602951,133.670944 5.998118,138.551941 1.282061,143.286133 
	C1.000000,95.747055 1.000000,48.494106 1.000000,1.000000 
	C39.353889,1.000000 77.708290,1.000000 116.531342,1.000001 
z"/>
</svg>